<svg xmlns="http://www.w3.org/2000/svg" xmlns:xlink="http://www.w3.org/1999/xlink" xmlns:lucid="lucid" width="1107" height="522"><g transform="translate(-168 -37)" lucid:page-tab-id="0_0"><path d="M198.55 126a6 6 0 0 1 6-6H394a6 6 0 0 1 6 6v48a6 6 0 0 1-6 6H204.55a6 6 0 0 1-6-6z" fill="none"/><use xlink:href="#a" transform="matrix(1,0,0,1,198.54945054945597,120) translate(33.373046875 38.083767361111114)"/><use xlink:href="#b" transform="matrix(1,0,0,1,198.54945054945597,120) translate(111.92122395833333 38.083767361111114)"/><path d="M600 106a6 6 0 0 1 6-6h88a6 6 0 0 1 6 6v88a6 6 0 0 1-6 6h-88a6 6 0 0 1-6-6zM700 106a6 6 0 0 1 6-6h88a6 6 0 0 1 6 6v88a6 6 0 0 1-6 6h-88a6 6 0 0 1-6-6zM800 106a6 6 0 0 1 6-6h88a6 6 0 0 1 6 6v88a6 6 0 0 1-6 6h-88a6 6 0 0 1-6-6zM900 106a6 6 0 0 1 6-6h88a6 6 0 0 1 6 6v88a6 6 0 0 1-6 6h-88a6 6 0 0 1-6-6zM1000 106a6 6 0 0 1 6-6h88a6 6 0 0 1 6 6v88a6 6 0 0 1-6 6h-88a6 6 0 0 1-6-6zM1100 106a6 6 0 0 1 6-6h88a6 6 0 0 1 6 6v88a6 6 0 0 1-6 6h-88a6 6 0 0 1-6-6z" stroke="#000" stroke-width="2" fill="#fff"/><path d="M600 66a6 6 0 0 1 6-6h88a6 6 0 0 1 6 6v28a6 6 0 0 1-6 6h-88a6 6 0 0 1-6-6z" fill="none"/><use xlink:href="#c" transform="matrix(1,0,0,1,600,60) translate(44.392361111111114 26.46701388888889)"/><path d="M1100 66a6 6 0 0 1 6-6h88a6 6 0 0 1 6 6v28a6 6 0 0 1-6 6h-88a6 6 0 0 1-6-6z" fill="none"/><use xlink:href="#d" transform="matrix(1,0,0,1,1100,60) translate(20.989583333333332 26.46701388888889)"/><use xlink:href="#e" transform="matrix(1,0,0,1,1100,60) translate(58.60243055555556 26.46701388888889)"/><use xlink:href="#f" transform="matrix(1,0,0,1,1100,60) translate(71.77951388888889 26.46701388888889)"/><path d="M198.55 426a6 6 0 0 1 6-6H394a6 6 0 0 1 6 6v48a6 6 0 0 1-6 6H204.55a6 6 0 0 1-6-6z" fill="none"/><use xlink:href="#g" transform="matrix(1,0,0,1,198.54945054945597,420) translate(51.85177951388889 21.95095486111111)"/><use xlink:href="#h" transform="matrix(1,0,0,1,198.54945054945597,420) translate(106.47417534722223 21.95095486111111)"/><use xlink:href="#i" transform="matrix(1,0,0,1,198.54945054945597,420) translate(12.71875 54.21657986111111)"/><path d="M600 406a6 6 0 0 1 6-6h208a6 6 0 0 1 6 6v88a6 6 0 0 1-6 6H606a6 6 0 0 1-6-6zM840 406a6 6 0 0 1 6-6h68a6 6 0 0 1 6 6v88a6 6 0 0 1-6 6h-68a6 6 0 0 1-6-6zM940 406a6 6 0 0 1 6-6h248a6 6 0 0 1 6 6v88a6 6 0 0 1-6 6H946a6 6 0 0 1-6-6z" stroke="#000" stroke-width="2" fill="#fff"/><path d="M600 506a6 6 0 0 1 6-6h208a6 6 0 0 1 6 6v28a6 6 0 0 1-6 6H606a6 6 0 0 1-6-6z" fill="none"/><use xlink:href="#c" transform="matrix(1,0,0,1,600,500) translate(104.39236111111111 26.46701388888889)"/><path d="M940 506a6 6 0 0 1 6-6h248a6 6 0 0 1 6 6v28a6 6 0 0 1-6 6H946a6 6 0 0 1-6-6z" fill="none"/><use xlink:href="#j" transform="matrix(1,0,0,1,940,500) translate(123.58506944444444 26.46701388888889)"/><path d="M659.94 220.5l-17.9 143.24M659.94 220.5l.06-.5" stroke="#3a414a" fill="none"/><path d="M640.2 378.4l-2.83-14.74 9.2 1.15z" stroke="#3a414a" fill="#3a414a"/><path d="M959.6 220.3L772.8 369.77M959.6 220.32l.4-.32" stroke="#3a414a" fill="none"/><path d="M761.26 379l8.25-12.54 5.8 7.24z" stroke="#3a414a" fill="#3a414a"/><path d="M740.3 220.4l109.87 146.5M740.3 220.4l-.3-.4" stroke="#3a414a" fill="none"/><path d="M859.03 378.7l-12.27-8.63 7.42-5.56z" stroke="#3a414a" fill="#3a414a"/><path d="M1059.73 220.42l-91.05 145.7M1059.73 220.44l.27-.44" stroke="#3a414a" fill="none"/><path d="M960.86 378.63l3.63-14.56 7.85 4.92z" stroke="#3a414a" fill="#3a414a"/><path d="M840.4 220.3l206.35 150.06M840.4 220.3l-.4-.3" stroke="#3a414a" fill="none"/><path d="M1058.7 379.05l-14.27-4.64 5.45-7.5z" stroke="#3a414a" fill="#3a414a"/><path d="M1159.94 220.5l-17.9 143.24M1159.94 220.5l.06-.5" stroke="#3a414a" fill="none"/><path d="M1140.2 378.4l-2.83-14.74 9.2 1.15z" stroke="#3a414a" fill="#3a414a"/><defs><path d="M180 0v-1490h528c311 0 458 177 458 395 0 191-114 278-244 313v14c139 9 302 137 302 371 0 225-148 397-499 397H180zm190-168h350c232 0 321-102 321-231 0-149-120-277-311-277H370v508zm0-668h328c160 0 286-101 286-255 0-129-87-231-280-231H370v486" id="k"/><path d="M537 14c-226 0-379-139-379-422v-710h180v695c0 172 97 275 253 275 160 0 281-109 281-300v-670h181V0H879v-209C806-46 684 14 537 14" id="l"/><path d="M613 24c-304 0-509-231-509-576 0-350 205-580 509-580 216 0 392 114 453 309l-173 49c-33-115-133-197-280-197-223 0-326 196-326 419 0 220 103 415 326 415 150 0 252-85 285-206l172 49C1010-95 832 24 613 24" id="m"/><path d="M158 0v-1490h180v865h22l478-493h223L593-638 1096 0H865L456-523 338-412V0H158" id="n"/><path d="M628 24c-324 0-524-230-524-574 0-343 198-582 503-582 237 0 487 146 487 559v75H286c9 234 145 362 343 362 132 0 231-58 273-172l174 48C1024-91 857 24 628 24zM287-650h624c-17-190-120-322-304-322-192 0-309 151-320 322" id="o"/><path d="M598-1118v154H368v674c0 100 37 144 132 144 23 0 62-6 92-12L629-6c-37 13-88 20-134 20-193 0-307-107-307-290v-688H20v-154h168v-266h180v266h230" id="p"/><g id="a"><use transform="matrix(0.010850694444444444,0,0,0.010850694444444444,0,0)" xlink:href="#k"/><use transform="matrix(0.010850694444444444,0,0,0.010850694444444444,14.539930555555555,0)" xlink:href="#l"/><use transform="matrix(0.010850694444444444,0,0,0.010850694444444444,27.68012152777778,0)" xlink:href="#m"/><use transform="matrix(0.010850694444444444,0,0,0.010850694444444444,40.37543402777778,0)" xlink:href="#n"/><use transform="matrix(0.010850694444444444,0,0,0.010850694444444444,52.0724826388889,0)" xlink:href="#o"/><use transform="matrix(0.010850694444444444,0,0,0.010850694444444444,65.02821180555556,0)" xlink:href="#p"/></g><path d="M158 0v-1118h180V0H158zm91-1301c-68 0-125-53-125-119s57-119 125-119c69 0 126 53 126 119s-57 119-126 119" id="q"/><path d="M338-670V0H158v-1118h173l1 207c72-158 192-221 342-221 226 0 378 139 378 422V0H872v-695c0-172-96-275-252-275-161 0-282 109-282 300" id="r"/><path d="M577 24c-279 0-473-224-473-580 0-354 195-576 474-576 218 0 287 134 324 193h14v-551h180V0H922v-173h-20C865-111 790 24 577 24zm27-161c203 0 314-172 314-421 0-247-108-413-314-413-212 0-317 181-317 413 0 235 108 421 317 421" id="s"/><path d="M65 0l393-574-370-544h210c88 136 192 297 267 435 67-142 176-302 264-435h206L661-564 1053 0H844c-94-144-206-310-287-458C484-308 366-142 273 0H65" id="t"/><g id="b"><use transform="matrix(0.010850694444444444,0,0,0.010850694444444444,0,0)" xlink:href="#q"/><use transform="matrix(0.010850694444444444,0,0,0.010850694444444444,5.381944444444445,0)" xlink:href="#r"/><use transform="matrix(0.010850694444444444,0,0,0.010850694444444444,18.51128472222222,0)" xlink:href="#s"/><use transform="matrix(0.010850694444444444,0,0,0.010850694444444444,32.11805555555556,0)" xlink:href="#o"/><use transform="matrix(0.010850694444444444,0,0,0.010850694444444444,44.57465277777778,0)" xlink:href="#t"/></g><path d="M646 20c-332 0-524-278-524-764 0-483 194-766 524-766s524 283 524 766c0 485-191 764-524 764zm0-166c218 0 341-220 341-598 0-380-123-601-341-601s-341 222-341 601c0 378 123 598 341 598" id="u"/><use transform="matrix(0.008680555555555556,0,0,0.008680555555555556,0,0)" xlink:href="#u" id="c"/><path d="M154 0v-137l495-537c165-179 249-281 249-418 0-156-121-253-280-253-170 0-278 110-278 278H158c0-264 200-443 465-443 266 0 455 183 455 416 0 161-73 288-336 568L416-179v12h687V0H154" id="v"/><path d="M82-814l301-629h199l301 629H706l-217-471h-13L261-814H82" id="w"/><path d="M180 0v-1490h224l606 953c40 63 108 177 176 312-27-437-7-821-13-1265h190V0h-226C860-448 622-778 356-1262c27 476 11 792 15 1262H180" id="x"/><g id="d"><use transform="matrix(0.008680555555555556,0,0,0.008680555555555556,0,0)" xlink:href="#v"/><use transform="matrix(0.008680555555555556,0,0,0.008680555555555556,10.84201388888889,0)" xlink:href="#w"/><use transform="matrix(0.008680555555555556,0,0,0.008680555555555556,19.21875,0)" xlink:href="#x"/></g><path d="M798-719v166H144v-166h654" id="y"/><use transform="matrix(0.008680555555555556,0,0,0.008680555555555556,0,0)" xlink:href="#y" id="e"/><path d="M653-1490V0H466v-1314h-10L96-1047v-204l324-239h233" id="z"/><use transform="matrix(0.008680555555555556,0,0,0.008680555555555556,0,0)" xlink:href="#z" id="f"/><path d="M645 0H180v-1490h484c435 0 692 280 692 742 0 466-257 748-711 748zM370-168h263c363 0 539-218 539-580 0-358-176-574-521-574H370v1154" id="A"/><path d="M471 26C259 26 90-98 90-318c0-256 228-303 435-329 202-27 287-16 287-108 0-139-79-219-234-219-161 0-248 86-283 164l-173-57c86-203 278-265 451-265 150 0 419 46 419 395V0H815v-152h-12C765-73 660 26 471 26zm31-159c199 0 310-134 310-271v-155c-30 35-226 55-295 64-131 17-246 59-246 186 0 116 97 176 231 176" id="B"/><g id="g"><use transform="matrix(0.010850694444444444,0,0,0.010850694444444444,0,0)" xlink:href="#A"/><use transform="matrix(0.010850694444444444,0,0,0.010850694444444444,16.03732638888889,0)" xlink:href="#B"/><use transform="matrix(0.010850694444444444,0,0,0.010850694444444444,28.515625,0)" xlink:href="#p"/><use transform="matrix(0.010850694444444444,0,0,0.010850694444444444,35.89409722222222,0)" xlink:href="#B"/></g><path d="M678-1118v154H420V0H240v-964H20v-154h220v-149c0-194 155-293 318-293 85 0 141 18 168 30l-50 154c-19-6-47-17-97-17-111 0-159 58-159 166v109h258" id="C"/><path d="M338-1490V0H158v-1490h180" id="D"/><path d="M538 24C308 24 148-78 108-271l171-41c32 123 123 178 257 178 156 0 256-77 256-169 0-77-54-128-164-154l-186-44c-203-48-300-148-300-305 0-192 176-326 414-326 230 0 351 112 402 269l-163 42c-31-80-94-158-238-158-133 0-233 69-233 162 0 83 57 129 188 160l169 40c203 48 298 149 298 302 0 196-179 339-441 339" id="E"/><g id="h"><use transform="matrix(0.010850694444444444,0,0,0.010850694444444444,0,0)" xlink:href="#C"/><use transform="matrix(0.010850694444444444,0,0,0.010850694444444444,8.22482638888889,0)" xlink:href="#q"/><use transform="matrix(0.010850694444444444,0,0,0.010850694444444444,13.606770833333332,0)" xlink:href="#D"/><use transform="matrix(0.010850694444444444,0,0,0.010850694444444444,18.98871527777778,0)" xlink:href="#o"/><use transform="matrix(0.010850694444444444,0,0,0.010850694444444444,31.944444444444443,0)" xlink:href="#E"/></g><path d="M613 24c-304 0-509-231-509-576 0-350 205-580 509-580 305 0 511 230 511 580 0 345-206 576-511 576zm0-161c226 0 329-195 329-415 0-222-103-419-329-419-223 0-326 196-326 419 0 220 103 415 326 415" id="F"/><path d="M677 24c-213 0-288-135-325-197h-20V0H158v-1490h180v551h14c37-59 106-193 324-193 279 0 474 222 474 576 0 356-194 580-473 580zm-27-161c209 0 317-186 317-421 0-232-105-413-317-413-206 0-314 166-314 413 0 249 111 421 314 421" id="G"/><path d="M157-1118h181V80c1 225-123 350-364 338V252c126 9 184-48 183-172v-1198zm91-183c-68 0-125-53-125-119s57-119 125-119c69 0 126 53 126 119s-57 119-126 119" id="H"/><path d="M180 0v-1490h190c0 262 1 526-3 784 217-279 467-523 702-784h249L716-845 1319 0h-225L585-716 370-489V0H180" id="I"/><path d="M140 405l46-156c120 36 205 19 263-150l32-93L54-1118h197c107 313 237 620 324 950 87-331 219-637 326-950h196L606 167c-68 178-176 259-334 259-64 0-113-12-132-21" id="J"/><path d="M98-1322v-168h1126v168H757V0H567v-1322H98" id="K"/><path d="M180 0v-1490h510c348 0 508 209 508 474 0 266-160 477-507 477H370V0H180zm190-706h312c236 0 327-133 327-310 0-176-91-307-329-307H370v617" id="L"/><path d="M338-670V0H158v-1490h180v566c73-149 190-208 336-208 226 0 379 139 379 422V0H872v-695c0-172-96-275-252-275-161 0-282 109-282 300" id="M"/><g id="i"><use transform="matrix(0.010850694444444444,0,0,0.010850694444444444,0,0)" xlink:href="#F"/><use transform="matrix(0.010850694444444444,0,0,0.010850694444444444,13.324652777777777,0)" xlink:href="#G"/><use transform="matrix(0.010850694444444444,0,0,0.010850694444444444,26.931423611111104,0)" xlink:href="#H"/><use transform="matrix(0.010850694444444444,0,0,0.010850694444444444,32.31336805555555,0)" xlink:href="#o"/><use transform="matrix(0.010850694444444444,0,0,0.010850694444444444,45.26909722222221,0)" xlink:href="#m"/><use transform="matrix(0.010850694444444444,0,0,0.010850694444444444,57.96440972222221,0)" xlink:href="#p"/><use transform="matrix(0.010850694444444444,0,0,0.010850694444444444,65.23437499999999,0)" xlink:href="#I"/><use transform="matrix(0.010850694444444444,0,0,0.010850694444444444,79.28602430555554,0)" xlink:href="#o"/><use transform="matrix(0.010850694444444444,0,0,0.010850694444444444,91.80772569444444,0)" xlink:href="#J"/><use transform="matrix(0.010850694444444444,0,0,0.010850694444444444,103.54817708333333,0)" xlink:href="#K"/><use transform="matrix(0.010850694444444444,0,0,0.010850694444444444,116.15668402777777,0)" xlink:href="#F"/><use transform="matrix(0.010850694444444444,0,0,0.010850694444444444,129.48133680555554,0)" xlink:href="#L"/><use transform="matrix(0.010850694444444444,0,0,0.010850694444444444,143.67404513888889,0)" xlink:href="#B"/><use transform="matrix(0.010850694444444444,0,0,0.010850694444444444,156.15234375,0)" xlink:href="#p"/><use transform="matrix(0.010850694444444444,0,0,0.010850694444444444,163.42230902777777,0)" xlink:href="#M"/></g><use transform="matrix(0.008680555555555556,0,0,0.008680555555555556,0,0)" xlink:href="#A" id="j"/></defs></g></svg>