<svg xmlns="http://www.w3.org/2000/svg" xmlns:xlink="http://www.w3.org/1999/xlink" xmlns:lucid="lucid" width="2147" height="693"><g transform="translate(91 -1484)" lucid:page-tab-id="0_0"><path d="M600 1606a6 6 0 0 1 6-6h189.45a6 6 0 0 1 6 6v88a6 6 0 0 1-6 6H606a6 6 0 0 1-6-6z" stroke="#000" stroke-width="2" fill="#fff"/><use xlink:href="#a" transform="matrix(1,0,0,1,605,1605) translate(31.671657986111114 35.59027777777778)"/><use xlink:href="#b" transform="matrix(1,0,0,1,605,1605) translate(54.95724826388889 67.85590277777777)"/><use xlink:href="#c" transform="matrix(1,0,0,1,605,1605) translate(74.71636284722223 67.85590277777777)"/><path d="M198.55 1606a6 6 0 0 1 6-6h190.9a6 6 0 0 1 6 6v88a6 6 0 0 1-6 6h-190.9a6 6 0 0 1-6-6z" fill="none"/><use xlink:href="#d" transform="matrix(1,0,0,1,198.54945054945597,1600) translate(4.619574652777786 25.818142361111114)"/><use xlink:href="#e" transform="matrix(1,0,0,1,198.54945054945597,1600) translate(83.16775173611111 25.818142361111114)"/><use xlink:href="#f" transform="matrix(1,0,0,1,198.54945054945597,1600) translate(148.97721354166669 25.818142361111114)"/><use xlink:href="#g" transform="matrix(1,0,0,1,198.54945054945597,1600) translate(184.6325954861111 25.818142361111114)"/><use xlink:href="#h" transform="matrix(1,0,0,1,198.54945054945597,1600) translate(65.31293402777777 58.083767361111114)"/><use xlink:href="#f" transform="matrix(1,0,0,1,198.54945054945597,1600) translate(88.30555555555554 58.083767361111114)"/><use xlink:href="#i" transform="matrix(1,0,0,1,198.54945054945597,1600) translate(123.9609375 58.083767361111114)"/><use xlink:href="#j" transform="matrix(1,0,0,1,198.54945054945597,1600) translate(23.516059027777786 90.34939236111111)"/><use xlink:href="#k" transform="matrix(1,0,0,1,198.54945054945597,1600) translate(102.06423611111111 90.34939236111111)"/><use xlink:href="#f" transform="matrix(1,0,0,1,198.54945054945597,1600) translate(130.31944444444446 90.34939236111111)"/><use xlink:href="#l" transform="matrix(1,0,0,1,198.54945054945597,1600) translate(165.97482638888886 90.34939236111111)"/><path d="M1001.45 1606a6 6 0 0 1 6-6h489.45a6 6 0 0 1 6 6v88a6 6 0 0 1-6 6h-489.45a6 6 0 0 1-6-6z" stroke="#000" stroke-width="2" fill="#fff"/><use xlink:href="#m" transform="matrix(1,0,0,1,1006.4505494505436,1605) translate(192.69596354166669 35.59027777777778)"/><use xlink:href="#b" transform="matrix(1,0,0,1,1006.4505494505436,1605) translate(204.95724826388889 67.85590277777777)"/><use xlink:href="#c" transform="matrix(1,0,0,1,1006.4505494505436,1605) translate(224.71636284722223 67.85590277777777)"/><path d="M1502.9 1606a6 6 0 0 1 6-6h488a6 6 0 0 1 6 6v88a6 6 0 0 1-6 6h-488a6 6 0 0 1-6-6z" stroke="#000" stroke-width="2" fill="#fff"/><use xlink:href="#m" transform="matrix(1,0,0,1,1507.901098901088,1605) translate(191.69596354166669 35.59027777777778)"/><use xlink:href="#n" transform="matrix(1,0,0,1,1507.901098901088,1605) translate(201.81966145833334 67.85590277777777)"/><use xlink:href="#o" transform="matrix(1,0,0,1,1507.901098901088,1605) translate(230.83441840277777 67.85590277777777)"/><path d="M200 1806a6 6 0 0 1 6-6h190.9a6 6 0 0 1 6 6v88a6 6 0 0 1-6 6H206a6 6 0 0 1-6-6z" fill="none"/><use xlink:href="#d" transform="matrix(1,0,0,1,200,1800) translate(0.08398437500001421 25.818142361111114)"/><use xlink:href="#e" transform="matrix(1,0,0,1,200,1800) translate(78.63216145833334 25.818142361111114)"/><use xlink:href="#f" transform="matrix(1,0,0,1,200,1800) translate(144.4416232638889 25.818142361111114)"/><use xlink:href="#p" transform="matrix(1,0,0,1,200,1800) translate(180.09700520833331 25.818142361111114)"/><use xlink:href="#h" transform="matrix(1,0,0,1,200,1800) translate(64.99826388888889 58.083767361111114)"/><use xlink:href="#f" transform="matrix(1,0,0,1,200,1800) translate(87.99088541666666 58.083767361111114)"/><use xlink:href="#q" transform="matrix(1,0,0,1,200,1800) translate(123.64626736111111 58.083767361111114)"/><use xlink:href="#j" transform="matrix(1,0,0,1,200,1800) translate(23.516059027777786 90.34939236111111)"/><use xlink:href="#k" transform="matrix(1,0,0,1,200,1800) translate(102.06423611111111 90.34939236111111)"/><use xlink:href="#f" transform="matrix(1,0,0,1,200,1800) translate(130.31944444444446 90.34939236111111)"/><use xlink:href="#l" transform="matrix(1,0,0,1,200,1800) translate(165.97482638888886 90.34939236111111)"/><path d="M200 2006a6 6 0 0 1 6-6h190.9a6 6 0 0 1 6 6v88a6 6 0 0 1-6 6H206a6 6 0 0 1-6-6z" fill="none"/><use xlink:href="#d" transform="matrix(1,0,0,1,200,2000) translate(0.08398437500001421 25.818142361111114)"/><use xlink:href="#e" transform="matrix(1,0,0,1,200,2000) translate(78.63216145833334 25.818142361111114)"/><use xlink:href="#f" transform="matrix(1,0,0,1,200,2000) translate(144.4416232638889 25.818142361111114)"/><use xlink:href="#p" transform="matrix(1,0,0,1,200,2000) translate(180.09700520833331 25.818142361111114)"/><use xlink:href="#h" transform="matrix(1,0,0,1,200,2000) translate(64.99826388888889 58.083767361111114)"/><use xlink:href="#f" transform="matrix(1,0,0,1,200,2000) translate(87.99088541666666 58.083767361111114)"/><use xlink:href="#q" transform="matrix(1,0,0,1,200,2000) translate(123.64626736111111 58.083767361111114)"/><use xlink:href="#j" transform="matrix(1,0,0,1,200,2000) translate(18.88823784722223 90.34939236111111)"/><use xlink:href="#k" transform="matrix(1,0,0,1,200,2000) translate(97.43641493055556 90.34939236111111)"/><use xlink:href="#f" transform="matrix(1,0,0,1,200,2000) translate(125.69162326388889 90.34939236111111)"/><use xlink:href="#r" transform="matrix(1,0,0,1,200,2000) translate(161.34700520833331 90.34939236111111)"/><path d="M600 1806a6 6 0 0 1 6-6h189.45a6 6 0 0 1 6 6v88a6 6 0 0 1-6 6H606a6 6 0 0 1-6-6z" stroke="#000" stroke-width="2" fill="#fff"/><use xlink:href="#a" transform="matrix(1,0,0,1,605,1805) translate(31.671657986111114 35.59027777777778)"/><use xlink:href="#b" transform="matrix(1,0,0,1,605,1805) translate(54.95724826388889 67.85590277777777)"/><use xlink:href="#c" transform="matrix(1,0,0,1,605,1805) translate(74.71636284722223 67.85590277777777)"/><path d="M1001.45 1806a6 6 0 0 1 6-6h488a6 6 0 0 1 6 6v88a6 6 0 0 1-6 6h-488a6 6 0 0 1-6-6z" stroke="#000" stroke-width="2" fill="#fff"/><g><use xlink:href="#m" transform="matrix(1,0,0,1,1006.4505494505436,1805) translate(191.69596354166669 35.59027777777778)"/><use xlink:href="#b" transform="matrix(1,0,0,1,1006.4505494505436,1805) translate(203.95724826388889 67.85590277777777)"/><use xlink:href="#c" transform="matrix(1,0,0,1,1006.4505494505436,1805) translate(223.71636284722223 67.85590277777777)"/></g><path d="M1501.45 1806a6 6 0 0 1 6-6h490.9a6 6 0 0 1 6 6v88a6 6 0 0 1-6 6h-490.9a6 6 0 0 1-6-6z" stroke="#000" stroke-width="2" fill="#fff"/><g><use xlink:href="#s" transform="matrix(1,0,0,1,1506.4505494505436,1805) translate(238.92078993055554 52.46527777777778)"/></g><path d="M600 2006a6 6 0 0 1 6-6h189.45a6 6 0 0 1 6 6v88a6 6 0 0 1-6 6H606a6 6 0 0 1-6-6z" stroke="#000" stroke-width="2" fill="#fff"/><g><use xlink:href="#a" transform="matrix(1,0,0,1,605,2005) translate(31.671657986111114 35.59027777777778)"/><use xlink:href="#n" transform="matrix(1,0,0,1,605,2005) translate(52.819661458333336 67.85590277777777)"/><use xlink:href="#o" transform="matrix(1,0,0,1,605,2005) translate(81.83441840277777 67.85590277777777)"/></g><path d="M1001.45 2006a6 6 0 0 1 6-6h488a6 6 0 0 1 6 6v88a6 6 0 0 1-6 6h-488a6 6 0 0 1-6-6z" stroke="#000" stroke-width="2" fill="#fff"/><g><use xlink:href="#s" transform="matrix(1,0,0,1,1006.4505494505436,2005) translate(237.42078993055554 52.46527777777778)"/></g><path d="M1502.9 2006a6 6 0 0 1 6-6h489.45a6 6 0 0 1 6 6v88a6 6 0 0 1-6 6H1508.9a6 6 0 0 1-6-6z" stroke="#000" stroke-width="2" fill="#fff"/><g><use xlink:href="#m" transform="matrix(1,0,0,1,1507.9010989010878,2005) translate(192.69596354166669 35.59027777777778)"/><use xlink:href="#n" transform="matrix(1,0,0,1,1507.9010989010878,2005) translate(202.81966145833334 67.85590277777777)"/><use xlink:href="#o" transform="matrix(1,0,0,1,1507.9010989010878,2005) translate(231.83441840277777 67.85590277777777)"/></g><path d="M1000 1906a6 6 0 0 1 6-6h489.45a6 6 0 0 1 6 6v48a6 6 0 0 1-6 6H1006a6 6 0 0 1-6-6z" fill="none"/><g><use xlink:href="#t" transform="matrix(1,0,0,1,999.9999999999997,1900) translate(152.44856770833331 38.083767361111114)"/><use xlink:href="#u" transform="matrix(1,0,0,1,999.9999999999997,1900) translate(204.8140190972222 38.083767361111114)"/><use xlink:href="#v" transform="matrix(1,0,0,1,999.9999999999997,1900) translate(225.37608506944443 38.083767361111114)"/><use xlink:href="#f" transform="matrix(1,0,0,1,999.9999999999997,1900) translate(267.7805989583333 38.083767361111114)"/><use xlink:href="#w" transform="matrix(1,0,0,1,999.9999999999997,1900) translate(303.43598090277777 38.083767361111114)"/></g><path d="M1001.45 1706a6 6 0 0 1 6-6h489.45a6 6 0 0 1 6 6v48a6 6 0 0 1-6 6h-489.45a6 6 0 0 1-6-6z" fill="none"/><g><use xlink:href="#t" transform="matrix(1,0,0,1,1001.4505494505435,1700) translate(149.95833333333331 38.083767361111114)"/><use xlink:href="#u" transform="matrix(1,0,0,1,1001.4505494505435,1700) translate(202.3237847222222 38.083767361111114)"/><use xlink:href="#x" transform="matrix(1,0,0,1,1001.4505494505435,1700) translate(222.88585069444443 38.083767361111114)"/><use xlink:href="#f" transform="matrix(1,0,0,1,1001.4505494505435,1700) translate(270.2708333333333 38.083767361111114)"/><use xlink:href="#w" transform="matrix(1,0,0,1,1001.4505494505435,1700) translate(305.92621527777777 38.083767361111114)"/></g><path d="M1501.45 1706a6 6 0 0 1 6-6h489.45a6 6 0 0 1 6 6v48a6 6 0 0 1-6 6h-489.45a6 6 0 0 1-6-6z" fill="none"/><g><use xlink:href="#y" transform="matrix(1,0,0,1,1501.4505494505433,1700) translate(152.44856770833331 38.083767361111114)"/><use xlink:href="#u" transform="matrix(1,0,0,1,1501.4505494505433,1700) translate(199.8335503472222 38.083767361111114)"/><use xlink:href="#x" transform="matrix(1,0,0,1,1501.4505494505433,1700) translate(220.39561631944443 38.083767361111114)"/><use xlink:href="#f" transform="matrix(1,0,0,1,1501.4505494505433,1700) translate(267.7805989583333 38.083767361111114)"/><use xlink:href="#w" transform="matrix(1,0,0,1,1501.4505494505433,1700) translate(303.43598090277777 38.083767361111114)"/></g><path d="M1501.45 1906a6 6 0 0 1 6-6h489.45a6 6 0 0 1 6 6v48a6 6 0 0 1-6 6h-489.45a6 6 0 0 1-6-6z" fill="none"/><g><use xlink:href="#y" transform="matrix(1,0,0,1,1501.4505494505433,1900) translate(159.09461805555554 38.083767361111114)"/><use xlink:href="#u" transform="matrix(1,0,0,1,1501.4505494505433,1900) translate(206.47960069444443 38.083767361111114)"/><use xlink:href="#v" transform="matrix(1,0,0,1,1501.4505494505433,1900) translate(227.04166666666666 38.083767361111114)"/><use xlink:href="#z" transform="matrix(1,0,0,1,1501.4505494505433,1900) translate(269.44618055555554 38.083767361111114)"/><use xlink:href="#w" transform="matrix(1,0,0,1,1501.4505494505433,1900) translate(296.78993055555554 38.083767361111114)"/></g><path d="M1001.45 1506a6 6 0 0 1 6-6h489.45a6 6 0 0 1 6 6v48a6 6 0 0 1-6 6h-489.45a6 6 0 0 1-6-6z" fill="none"/><g><use xlink:href="#A" transform="matrix(1,0,0,1,1001.4505494505435,1500) translate(35.0874565972222 38.083767361111114)"/><use xlink:href="#u" transform="matrix(1,0,0,1,1001.4505494505435,1500) translate(147.94552951388886 38.083767361111114)"/><use xlink:href="#B" transform="matrix(1,0,0,1,1001.4505494505435,1500) translate(168.5075954861111 38.083767361111114)"/><use xlink:href="#f" transform="matrix(1,0,0,1,1001.4505494505435,1500) translate(302.60047743055554 38.083767361111114)"/><use xlink:href="#C" transform="matrix(1,0,0,1,1001.4505494505435,1500) translate(338.255859375 38.083767361111114)"/></g><path d="M1001.45 2106a6 6 0 0 1 6-6h489.45a6 6 0 0 1 6 6v48a6 6 0 0 1-6 6h-489.45a6 6 0 0 1-6-6z" fill="none"/><g><use xlink:href="#t" transform="matrix(1,0,0,1,1001.4505494505435,2100) translate(159.09461805555554 38.083767361111114)"/><use xlink:href="#u" transform="matrix(1,0,0,1,1001.4505494505435,2100) translate(211.46006944444443 38.083767361111114)"/><use xlink:href="#v" transform="matrix(1,0,0,1,1001.4505494505435,2100) translate(232.02213541666666 38.083767361111114)"/><use xlink:href="#z" transform="matrix(1,0,0,1,1001.4505494505435,2100) translate(274.42664930555554 38.083767361111114)"/><use xlink:href="#D" transform="matrix(1,0,0,1,1001.4505494505435,2100) translate(301.77039930555554 38.083767361111114)"/></g><path d="M1501.45 2106a6 6 0 0 1 6-6h489.45a6 6 0 0 1 6 6v48a6 6 0 0 1-6 6h-489.45a6 6 0 0 1-6-6z" fill="none"/><g><use xlink:href="#y" transform="matrix(1,0,0,1,1501.4505494505433,2100) translate(157.42903645833331 38.083767361111114)"/><use xlink:href="#u" transform="matrix(1,0,0,1,1501.4505494505433,2100) translate(204.8140190972222 38.083767361111114)"/><use xlink:href="#v" transform="matrix(1,0,0,1,1501.4505494505433,2100) translate(225.37608506944443 38.083767361111114)"/><use xlink:href="#f" transform="matrix(1,0,0,1,1501.4505494505433,2100) translate(267.7805989583333 38.083767361111114)"/><use xlink:href="#D" transform="matrix(1,0,0,1,1501.4505494505433,2100) translate(303.43598090277777 38.083767361111114)"/></g><path d="M800 1606a6 6 0 0 1 6-6h189.45a6 6 0 0 1 6 6v88a6 6 0 0 1-6 6H806a6 6 0 0 1-6-6z" stroke="#000" stroke-width="2" fill="#fff"/><g><use xlink:href="#E" transform="matrix(1,0,0,1,805,1605) translate(32.07855902777777 35.59027777777778)"/><use xlink:href="#F" transform="matrix(1,0,0,1,805,1605) translate(75.43250868055556 67.85590277777777)"/></g><path d="M800 1806a6 6 0 0 1 6-6h189.45a6 6 0 0 1 6 6v88a6 6 0 0 1-6 6H806a6 6 0 0 1-6-6z" stroke="#000" stroke-width="2" fill="#fff"/><g><use xlink:href="#E" transform="matrix(1,0,0,1,805,1805) translate(32.07855902777777 35.59027777777778)"/><use xlink:href="#G" transform="matrix(1,0,0,1,805,1805) translate(77.92274305555556 67.85590277777777)"/></g><path d="M800 2006a6 6 0 0 1 6-6h189.45a6 6 0 0 1 6 6v88a6 6 0 0 1-6 6H806a6 6 0 0 1-6-6z" stroke="#000" stroke-width="2" fill="#fff"/><g><use xlink:href="#E" transform="matrix(1,0,0,1,805,2005) translate(32.07855902777777 35.59027777777778)"/><use xlink:href="#G" transform="matrix(1,0,0,1,805,2005) translate(77.92274305555556 67.85590277777777)"/></g><path d="M-100 1806a6 6 0 0 1 6-6H94a6 6 0 0 1 6 6v88a6 6 0 0 1-6 6H-94a6 6 0 0 1-6-6z" fill="none"/><g><use xlink:href="#H" transform="matrix(1,0,0,1,-100,1800) translate(50.027126736111114 41.950954861111114)"/><use xlink:href="#I" transform="matrix(1,0,0,1,-100,1800) translate(54.43793402777778 74.21657986111111)"/><use xlink:href="#l" transform="matrix(1,0,0,1,-100,1800) translate(132.05295138888889 74.21657986111111)"/></g><path d="M-100 2006a6 6 0 0 1 6-6H94a6 6 0 0 1 6 6v88a6 6 0 0 1-6 6H-94a6 6 0 0 1-6-6z" fill="none"/><g><use xlink:href="#H" transform="matrix(1,0,0,1,-100,2000) translate(50.027126736111114 41.950954861111114)"/><use xlink:href="#I" transform="matrix(1,0,0,1,-100,2000) translate(49.81011284722222 74.21657986111111)"/><use xlink:href="#r" transform="matrix(1,0,0,1,-100,2000) translate(127.42513020833334 74.21657986111111)"/></g><path d="M-100 1606a6 6 0 0 1 6-6H94a6 6 0 0 1 6 6v88a6 6 0 0 1-6 6H-94a6 6 0 0 1-6-6z" fill="none"/><g><use xlink:href="#J" transform="matrix(1,0,0,1,-100,1600) translate(57.16688368055556 41.950954861111114)"/><use xlink:href="#K" transform="matrix(1,0,0,1,-100,1600) translate(62.39149305555556 74.21657986111111)"/></g><defs><path d="M677 24c-213 0-288-135-325-197h-20V0H158v-1490h180v551h14c37-59 106-193 324-193 279 0 474 222 474 576 0 356-194 580-473 580zm-27-161c209 0 317-186 317-421 0-232-105-413-317-413-206 0-314 166-314 413 0 249 111 421 314 421" id="L"/><path d="M537 14c-226 0-379-139-379-422v-710h180v695c0 172 97 275 253 275 160 0 281-109 281-300v-670h181V0H879v-209C806-46 684 14 537 14" id="M"/><path d="M613 24c-304 0-509-231-509-576 0-350 205-580 509-580 216 0 392 114 453 309l-173 49c-33-115-133-197-280-197-223 0-326 196-326 419 0 220 103 415 326 415 150 0 252-85 285-206l172 49C1010-95 832 24 613 24" id="N"/><path d="M158 0v-1490h180v865h22l478-493h223L593-638 1096 0H865L456-523 338-412V0H158" id="O"/><path d="M628 24c-324 0-524-230-524-574 0-343 198-582 503-582 237 0 487 146 487 559v75H286c9 234 145 362 343 362 132 0 231-58 273-172l174 48C1024-91 857 24 628 24zM287-650h624c-17-190-120-322-304-322-192 0-309 151-320 322" id="P"/><path d="M598-1118v154H368v674c0 100 37 144 132 144 23 0 62-6 92-12L629-6c-37 13-88 20-134 20-193 0-307-107-307-290v-688H20v-154h168v-266h180v266h230" id="Q"/><path d="M370-1490V0H180v-1490h190" id="R"/><path d="M338-670V0H158v-1118h173l1 207c72-158 192-221 342-221 226 0 378 139 378 422V0H872v-695c0-172-96-275-252-275-161 0-282 109-282 300" id="S"/><path d="M577 24c-279 0-473-224-473-580 0-354 195-576 474-576 218 0 287 134 324 193h14v-551h180V0H922v-173h-20C865-111 790 24 577 24zm27-161c203 0 314-172 314-421 0-247-108-413-314-413-212 0-317 181-317 413 0 235 108 421 317 421" id="T"/><path d="M65 0l393-574-370-544h210c88 136 192 297 267 435 67-142 176-302 264-435h206L661-564 1053 0H844c-94-144-206-310-287-458C484-308 366-142 273 0H65" id="U"/><g id="a"><use transform="matrix(0.010850694444444444,0,0,0.010850694444444444,0,0)" xlink:href="#L"/><use transform="matrix(0.010850694444444444,0,0,0.010850694444444444,13.606770833333332,0)" xlink:href="#M"/><use transform="matrix(0.010850694444444444,0,0,0.010850694444444444,26.746961805555554,0)" xlink:href="#N"/><use transform="matrix(0.010850694444444444,0,0,0.010850694444444444,39.44227430555556,0)" xlink:href="#O"/><use transform="matrix(0.010850694444444444,0,0,0.010850694444444444,51.13932291666667,0)" xlink:href="#P"/><use transform="matrix(0.010850694444444444,0,0,0.010850694444444444,64.09505208333334,0)" xlink:href="#Q"/><use transform="matrix(0.010850694444444444,0,0,0.010850694444444444,71.36501736111111,0)" xlink:href="#R"/><use transform="matrix(0.010850694444444444,0,0,0.010850694444444444,77.33289930555556,0)" xlink:href="#S"/><use transform="matrix(0.010850694444444444,0,0,0.010850694444444444,90.46223958333333,0)" xlink:href="#T"/><use transform="matrix(0.010850694444444444,0,0,0.010850694444444444,104.06901041666666,0)" xlink:href="#P"/><use transform="matrix(0.010850694444444444,0,0,0.010850694444444444,116.52560763888889,0)" xlink:href="#U"/></g><path d="M626 20c-262 0-458-168-468-396h184c12 133 134 229 284 229 180 0 311-137 311-326 0-192-136-335-323-335-92 0-196 33-255 78l-178-22 88-738h784v167H429l-51 435h8c61-51 160-87 263-87 273 0 474 211 474 499 0 286-210 496-497 496" id="V"/><use transform="matrix(0.010850694444444444,0,0,0.010850694444444444,0,0)" xlink:href="#V" id="b"/><path d="M218-607c0-325 108-727 258-974h175c-155 315-250 682-250 974 0 265 78 531 250 886H476C306-10 218-315 218-607" id="W"/><path d="M646 20c-332 0-524-278-524-764 0-483 194-766 524-766s524 283 524 766c0 485-191 764-524 764zm0-166c218 0 341-220 341-598 0-380-123-601-341-601s-341 222-341 601c0 378 123 598 341 598" id="X"/><path d="M653-1490V0H466v-1314h-10L96-1047v-204l324-239h233" id="Y"/><path d="M96 279C273-86 346-350 346-607c0-292-95-659-250-974h175c150 246 258 650 258 974 0 297-91 602-258 886H96" id="Z"/><g id="c"><use transform="matrix(0.010850694444444444,0,0,0.010850694444444444,0,0)" xlink:href="#W"/><use transform="matrix(0.010850694444444444,0,0,0.010850694444444444,8.10546875,0)" xlink:href="#X"/><use transform="matrix(0.010850694444444444,0,0,0.010850694444444444,22.12456597222222,0)" xlink:href="#Y"/><use transform="matrix(0.010850694444444444,0,0,0.010850694444444444,31.163194444444443,0)" xlink:href="#X"/><use transform="matrix(0.010850694444444444,0,0,0.010850694444444444,45.182291666666664,0)" xlink:href="#Y"/><use transform="matrix(0.010850694444444444,0,0,0.010850694444444444,54.220920138888886,0)" xlink:href="#Z"/></g><path d="M180 0v-1490h528c311 0 458 177 458 395 0 191-114 278-244 313v14c139 9 302 137 302 371 0 225-148 397-499 397H180zm190-168h350c232 0 321-102 321-231 0-149-120-277-311-277H370v508zm0-668h328c160 0 286-101 286-255 0-129-87-231-280-231H370v486" id="aa"/><g id="d"><use transform="matrix(0.010850694444444444,0,0,0.010850694444444444,0,0)" xlink:href="#aa"/><use transform="matrix(0.010850694444444444,0,0,0.010850694444444444,14.539930555555555,0)" xlink:href="#M"/><use transform="matrix(0.010850694444444444,0,0,0.010850694444444444,27.68012152777778,0)" xlink:href="#N"/><use transform="matrix(0.010850694444444444,0,0,0.010850694444444444,40.37543402777778,0)" xlink:href="#O"/><use transform="matrix(0.010850694444444444,0,0,0.010850694444444444,52.0724826388889,0)" xlink:href="#P"/><use transform="matrix(0.010850694444444444,0,0,0.010850694444444444,65.02821180555556,0)" xlink:href="#Q"/></g><path d="M613 24c-304 0-509-231-509-576 0-350 205-580 509-580 305 0 511 230 511 580 0 345-206 576-511 576zm0-161c226 0 329-195 329-415 0-222-103-419-329-419-223 0-326 196-326 419 0 220 103 415 326 415" id="ab"/><g id="e"><use transform="matrix(0.010850694444444444,0,0,0.010850694444444444,0,0)" xlink:href="#N"/><use transform="matrix(0.010850694444444444,0,0,0.010850694444444444,12.6953125,0)" xlink:href="#ab"/><use transform="matrix(0.010850694444444444,0,0,0.010850694444444444,26.01996527777778,0)" xlink:href="#M"/><use transform="matrix(0.010850694444444444,0,0,0.010850694444444444,39.16015625,0)" xlink:href="#S"/><use transform="matrix(0.010850694444444444,0,0,0.010850694444444444,52.28949652777778,0)" xlink:href="#Q"/></g><path d="M226-283v-166h904v166H226zm0-434v-166h904v166H226" id="ac"/><g id="f"><use transform="matrix(0.010850694444444444,0,0,0.010850694444444444,0,0)" xlink:href="#ac"/><use transform="matrix(0.010850694444444444,0,0,0.010850694444444444,14.702690972222221,0)" xlink:href="#ac"/></g><path d="M633 20c-303 0-511-173-511-416 0-188 124-348 291-378v-8c-145-37-237-174-237-332 0-227 192-396 457-396 261 0 456 169 456 396 0 158-94 295-235 332v8c162 30 291 190 291 378 0 243-212 416-512 416zm0-165c197 0 322-103 322-261 0-165-138-283-322-283-188 0-324 118-324 283 0 158 123 261 324 261zm0-703c157 0 272-101 272-252 0-149-110-246-272-246-165 0-273 97-273 246 0 151 112 252 273 252" id="ad"/><use transform="matrix(0.010850694444444444,0,0,0.010850694444444444,0,0)" xlink:href="#ad" id="g"/><path d="M180 0v-1490h224l606 953c40 63 108 177 176 312-27-437-7-821-13-1265h190V0h-226C860-448 622-778 356-1262c27 476 11 792 15 1262H180" id="ae"/><use transform="matrix(0.010850694444444444,0,0,0.010850694444444444,0,0)" xlink:href="#ae" id="h"/><path d="M635 20c-292 0-500-160-510-396h192c11 142 145 229 315 229 187 0 323-105 323-260 0-161-125-274-346-274H488v-165h121c174 0 294-100 294-254 0-148-104-245-266-245-152 0-291 85-297 230H157c8-234 222-395 484-395 278 0 448 188 448 400 0 168-95 291-247 336v12c190 31 301 169 301 357 0 244-216 425-508 425" id="af"/><use transform="matrix(0.010850694444444444,0,0,0.010850694444444444,0,0)" xlink:href="#af" id="i"/><g id="j"><use transform="matrix(0.010850694444444444,0,0,0.010850694444444444,0,0)" xlink:href="#aa"/><use transform="matrix(0.010850694444444444,0,0,0.010850694444444444,14.539930555555555,0)" xlink:href="#M"/><use transform="matrix(0.010850694444444444,0,0,0.010850694444444444,27.68012152777778,0)" xlink:href="#N"/><use transform="matrix(0.010850694444444444,0,0,0.010850694444444444,40.37543402777778,0)" xlink:href="#O"/><use transform="matrix(0.010850694444444444,0,0,0.010850694444444444,52.0724826388889,0)" xlink:href="#P"/><use transform="matrix(0.010850694444444444,0,0,0.010850694444444444,65.02821180555556,0)" xlink:href="#Q"/></g><path d="M645 0H180v-1490h484c435 0 692 280 692 742 0 466-257 748-711 748zM370-168h263c363 0 539-218 539-580 0-358-176-574-521-574H370v1154" id="ag"/><g id="k"><use transform="matrix(0.010850694444444444,0,0,0.010850694444444444,0,0)" xlink:href="#R"/><use transform="matrix(0.010850694444444444,0,0,0.010850694444444444,5.967881944444445,0)" xlink:href="#ag"/></g><use transform="matrix(0.010850694444444444,0,0,0.010850694444444444,0,0)" xlink:href="#V" id="l"/><path d="M338-670V0H158v-1490h180v566c73-149 190-208 336-208 226 0 379 139 379 422V0H872v-695c0-172-96-275-252-275-161 0-282 109-282 300" id="ah"/><path d="M471 26C259 26 90-98 90-318c0-256 228-303 435-329 202-27 287-16 287-108 0-139-79-219-234-219-161 0-248 86-283 164l-173-57c86-203 278-265 451-265 150 0 419 46 419 395V0H815v-152h-12C765-73 660 26 471 26zm31-159c199 0 310-134 310-271v-155c-30 35-226 55-295 64-131 17-246 59-246 186 0 116 97 176 231 176" id="ai"/><path d="M538 24C308 24 148-78 108-271l171-41c32 123 123 178 257 178 156 0 256-77 256-169 0-77-54-128-164-154l-186-44c-203-48-300-148-300-305 0-192 176-326 414-326 230 0 351 112 402 269l-163 42c-31-80-94-158-238-158-133 0-233 69-233 162 0 83 57 129 188 160l169 40c203 48 298 149 298 302 0 196-179 339-441 339" id="aj"/><path d="M783 20c-382 0-661-292-661-764 0-473 279-766 661-766 302 0 548 182 601 489h-190c-42-204-217-313-411-313-268 0-476 208-476 590 0 381 209 588 476 588 195 0 369-110 411-313h190c-52 303-296 489-601 489" id="ak"/><g id="m"><use transform="matrix(0.010850694444444444,0,0,0.010850694444444444,0,0)" xlink:href="#ah"/><use transform="matrix(0.010850694444444444,0,0,0.010850694444444444,13.140190972222221,0)" xlink:href="#ai"/><use transform="matrix(0.010850694444444444,0,0,0.010850694444444444,25.618489583333332,0)" xlink:href="#aj"/><use transform="matrix(0.010850694444444444,0,0,0.010850694444444444,37.34809027777778,0)" xlink:href="#ah"/><use transform="matrix(0.010850694444444444,0,0,0.010850694444444444,50.48828125,0)" xlink:href="#ak"/><use transform="matrix(0.010850694444444444,0,0,0.010850694444444444,66.72092013888889,0)" xlink:href="#ab"/><use transform="matrix(0.010850694444444444,0,0,0.010850694444444444,80.04557291666666,0)" xlink:href="#T"/><use transform="matrix(0.010850694444444444,0,0,0.010850694444444444,93.65234374999997,0)" xlink:href="#P"/></g><g id="n"><use transform="matrix(0.010850694444444444,0,0,0.010850694444444444,0,0)" xlink:href="#Y"/><use transform="matrix(0.010850694444444444,0,0,0.010850694444444444,9.038628472222221,0)" xlink:href="#af"/></g><g id="o"><use transform="matrix(0.010850694444444444,0,0,0.010850694444444444,0,0)" xlink:href="#W"/><use transform="matrix(0.010850694444444444,0,0,0.010850694444444444,8.10546875,0)" xlink:href="#Y"/><use transform="matrix(0.010850694444444444,0,0,0.010850694444444444,17.14409722222222,0)" xlink:href="#Y"/><use transform="matrix(0.010850694444444444,0,0,0.010850694444444444,26.182725694444443,0)" xlink:href="#X"/><use transform="matrix(0.010850694444444444,0,0,0.010850694444444444,40.201822916666664,0)" xlink:href="#Y"/><use transform="matrix(0.010850694444444444,0,0,0.010850694444444444,49.240451388888886,0)" xlink:href="#Z"/></g><path d="M646 20c-249 0-524-159-524-708 0-524 209-822 547-822 250 0 431 161 467 395H950c-33-129-126-227-281-227-229 0-367 208-367 566h12c80-124 212-198 367-198 255 0 467 205 467 493 0 278-198 501-502 501zm0-167c179 0 318-148 318-334 0-182-133-328-313-328-181 0-322 156-322 330 0 176 134 332 317 332" id="al"/><g id="p"><use transform="matrix(0.010850694444444444,0,0,0.010850694444444444,0,0)" xlink:href="#Y"/><use transform="matrix(0.010850694444444444,0,0,0.010850694444444444,9.038628472222221,0)" xlink:href="#al"/></g><path d="M120-303v-155l652-1032h231v1020h202v167h-202V0H821v-303H120zm702-167v-782h-12L323-482v12h499" id="am"/><use transform="matrix(0.010850694444444444,0,0,0.010850694444444444,0,0)" xlink:href="#am" id="q"/><g id="r"><use transform="matrix(0.010850694444444444,0,0,0.010850694444444444,0,0)" xlink:href="#Y"/><use transform="matrix(0.010850694444444444,0,0,0.010850694444444444,9.038628472222221,0)" xlink:href="#af"/></g><path d="M57 0l534-763-501-727h220c122 187 296 416 391 605 94-191 272-419 396-605h215L811-770 1340 0h-219C986-204 811-426 699-640 588-430 407-202 273 0H57" id="an"/><use transform="matrix(0.010850694444444444,0,0,0.010850694444444444,0,0)" xlink:href="#an" id="s"/><g id="t"><use transform="matrix(0.010850694444444444,0,0,0.010850694444444444,0,0)" xlink:href="#X"/><use transform="matrix(0.010850694444444444,0,0,0.010850694444444444,14.019097222222221,0)" xlink:href="#Y"/><use transform="matrix(0.010850694444444444,0,0,0.010850694444444444,23.057725694444443,0)" xlink:href="#X"/><use transform="matrix(0.010850694444444444,0,0,0.010850694444444444,37.076822916666664,0)" xlink:href="#Y"/></g><path d="M580 20c-295 0-476-179-476-409 0-189 123-290 294-416-104-125-173-226-173-362 0-197 144-337 365-337 224 0 362 144 362 321 0 185-174 312-306 405l319 387c38-75 61-165 61-267h173c0 208-62 332-120 406L1287 0h-217L967-124C868-27 716 20 580 20zm279-273L507-675l-51 38c-123 91-167 162-167 254 0 147 113 246 278 246 107 0 210-41 292-116zM538-908l97-72c54-40 136-101 136-206 0-95-68-163-176-163-113 0-189 74-189 181 0 90 53 164 132 260" id="ao"/><use transform="matrix(0.010850694444444444,0,0,0.010850694444444444,0,0)" xlink:href="#ao" id="u"/><g id="v"><use transform="matrix(0.010850694444444444,0,0,0.010850694444444444,0,0)" xlink:href="#Y"/><use transform="matrix(0.010850694444444444,0,0,0.010850694444444444,9.038628472222221,0)" xlink:href="#Y"/><use transform="matrix(0.010850694444444444,0,0,0.010850694444444444,18.077256944444443,0)" xlink:href="#Y"/><use transform="matrix(0.010850694444444444,0,0,0.010850694444444444,27.115885416666664,0)" xlink:href="#Y"/></g><g id="w"><use transform="matrix(0.010850694444444444,0,0,0.010850694444444444,0,0)" xlink:href="#X"/><use transform="matrix(0.010850694444444444,0,0,0.010850694444444444,14.019097222222221,0)" xlink:href="#Y"/><use transform="matrix(0.010850694444444444,0,0,0.010850694444444444,23.057725694444443,0)" xlink:href="#X"/><use transform="matrix(0.010850694444444444,0,0,0.010850694444444444,37.076822916666664,0)" xlink:href="#Y"/></g><g id="x"><use transform="matrix(0.010850694444444444,0,0,0.010850694444444444,0,0)" xlink:href="#X"/><use transform="matrix(0.010850694444444444,0,0,0.010850694444444444,14.019097222222221,0)" xlink:href="#Y"/><use transform="matrix(0.010850694444444444,0,0,0.010850694444444444,23.057725694444443,0)" xlink:href="#Y"/><use transform="matrix(0.010850694444444444,0,0,0.010850694444444444,32.096354166666664,0)" xlink:href="#Y"/></g><g id="y"><use transform="matrix(0.010850694444444444,0,0,0.010850694444444444,0,0)" xlink:href="#Y"/><use transform="matrix(0.010850694444444444,0,0,0.010850694444444444,9.038628472222221,0)" xlink:href="#Y"/><use transform="matrix(0.010850694444444444,0,0,0.010850694444444444,18.077256944444443,0)" xlink:href="#X"/><use transform="matrix(0.010850694444444444,0,0,0.010850694444444444,32.096354166666664,0)" xlink:href="#Y"/></g><path d="M204-479l-12-1011h204L383-479H204zm91 492c-75 0-135-60-135-134 0-75 60-135 135-135 74 0 134 60 134 135 0 74-60 134-134 134" id="ap"/><g id="z"><use transform="matrix(0.010850694444444444,0,0,0.010850694444444444,0,0)" xlink:href="#ap"/><use transform="matrix(0.010850694444444444,0,0,0.010850694444444444,6.391059027777778,0)" xlink:href="#ac"/></g><g id="A"><use transform="matrix(0.010850694444444444,0,0,0.010850694444444444,0,0)" xlink:href="#ah"/><use transform="matrix(0.010850694444444444,0,0,0.010850694444444444,13.140190972222221,0)" xlink:href="#ai"/><use transform="matrix(0.010850694444444444,0,0,0.010850694444444444,25.618489583333332,0)" xlink:href="#aj"/><use transform="matrix(0.010850694444444444,0,0,0.010850694444444444,37.34809027777778,0)" xlink:href="#ah"/><use transform="matrix(0.010850694444444444,0,0,0.010850694444444444,50.48828125,0)" xlink:href="#ak"/><use transform="matrix(0.010850694444444444,0,0,0.010850694444444444,66.72092013888889,0)" xlink:href="#ab"/><use transform="matrix(0.010850694444444444,0,0,0.010850694444444444,80.04557291666666,0)" xlink:href="#T"/><use transform="matrix(0.010850694444444444,0,0,0.010850694444444444,93.65234374999997,0)" xlink:href="#P"/></g><path d="M180 0v-1490h270l367 940c28 72 75 218 110 339 35-117 81-264 110-339l362-940h271V0h-187c2-448-5-837 7-1287-157 497-311 829-483 1287H842C666-458 514-784 354-1284c12 438 5 843 7 1284H180" id="aq"/><g id="B"><use transform="matrix(0.010850694444444444,0,0,0.010850694444444444,0,0)" xlink:href="#L"/><use transform="matrix(0.010850694444444444,0,0,0.010850694444444444,13.606770833333332,0)" xlink:href="#M"/><use transform="matrix(0.010850694444444444,0,0,0.010850694444444444,26.746961805555554,0)" xlink:href="#N"/><use transform="matrix(0.010850694444444444,0,0,0.010850694444444444,39.44227430555556,0)" xlink:href="#O"/><use transform="matrix(0.010850694444444444,0,0,0.010850694444444444,51.13932291666667,0)" xlink:href="#P"/><use transform="matrix(0.010850694444444444,0,0,0.010850694444444444,64.09505208333334,0)" xlink:href="#Q"/><use transform="matrix(0.010850694444444444,0,0,0.010850694444444444,71.36501736111111,0)" xlink:href="#aq"/><use transform="matrix(0.010850694444444444,0,0,0.010850694444444444,91.43880208333334,0)" xlink:href="#ai"/><use transform="matrix(0.010850694444444444,0,0,0.010850694444444444,103.91710069444446,0)" xlink:href="#aj"/><use transform="matrix(0.010850694444444444,0,0,0.010850694444444444,115.6467013888889,0)" xlink:href="#O"/></g><g id="C"><use transform="matrix(0.010850694444444444,0,0,0.010850694444444444,0,0)" xlink:href="#L"/><use transform="matrix(0.010850694444444444,0,0,0.010850694444444444,13.606770833333332,0)" xlink:href="#M"/><use transform="matrix(0.010850694444444444,0,0,0.010850694444444444,26.746961805555554,0)" xlink:href="#N"/><use transform="matrix(0.010850694444444444,0,0,0.010850694444444444,39.44227430555556,0)" xlink:href="#O"/><use transform="matrix(0.010850694444444444,0,0,0.010850694444444444,51.13932291666667,0)" xlink:href="#P"/><use transform="matrix(0.010850694444444444,0,0,0.010850694444444444,64.09505208333334,0)" xlink:href="#Q"/><use transform="matrix(0.010850694444444444,0,0,0.010850694444444444,71.36501736111111,0)" xlink:href="#R"/><use transform="matrix(0.010850694444444444,0,0,0.010850694444444444,77.33289930555556,0)" xlink:href="#S"/><use transform="matrix(0.010850694444444444,0,0,0.010850694444444444,90.46223958333333,0)" xlink:href="#T"/><use transform="matrix(0.010850694444444444,0,0,0.010850694444444444,104.06901041666666,0)" xlink:href="#P"/><use transform="matrix(0.010850694444444444,0,0,0.010850694444444444,116.52560763888889,0)" xlink:href="#U"/></g><g id="D"><use transform="matrix(0.010850694444444444,0,0,0.010850694444444444,0,0)" xlink:href="#Y"/><use transform="matrix(0.010850694444444444,0,0,0.010850694444444444,9.038628472222221,0)" xlink:href="#Y"/><use transform="matrix(0.010850694444444444,0,0,0.010850694444444444,18.077256944444443,0)" xlink:href="#X"/><use transform="matrix(0.010850694444444444,0,0,0.010850694444444444,32.096354166666664,0)" xlink:href="#Y"/></g><g id="E"><use transform="matrix(0.010850694444444444,0,0,0.010850694444444444,0,0)" xlink:href="#L"/><use transform="matrix(0.010850694444444444,0,0,0.010850694444444444,13.606770833333332,0)" xlink:href="#M"/><use transform="matrix(0.010850694444444444,0,0,0.010850694444444444,26.746961805555554,0)" xlink:href="#N"/><use transform="matrix(0.010850694444444444,0,0,0.010850694444444444,39.44227430555556,0)" xlink:href="#O"/><use transform="matrix(0.010850694444444444,0,0,0.010850694444444444,51.13932291666667,0)" xlink:href="#P"/><use transform="matrix(0.010850694444444444,0,0,0.010850694444444444,64.09505208333334,0)" xlink:href="#Q"/><use transform="matrix(0.010850694444444444,0,0,0.010850694444444444,71.36501736111111,0)" xlink:href="#aq"/><use transform="matrix(0.010850694444444444,0,0,0.010850694444444444,91.43880208333334,0)" xlink:href="#ai"/><use transform="matrix(0.010850694444444444,0,0,0.010850694444444444,103.91710069444446,0)" xlink:href="#aj"/><use transform="matrix(0.010850694444444444,0,0,0.010850694444444444,115.6467013888889,0)" xlink:href="#O"/></g><g id="F"><use transform="matrix(0.010850694444444444,0,0,0.010850694444444444,0,0)" xlink:href="#X"/><use transform="matrix(0.010850694444444444,0,0,0.010850694444444444,14.019097222222221,0)" xlink:href="#Y"/><use transform="matrix(0.010850694444444444,0,0,0.010850694444444444,23.057725694444443,0)" xlink:href="#Y"/><use transform="matrix(0.010850694444444444,0,0,0.010850694444444444,32.096354166666664,0)" xlink:href="#Y"/></g><g id="G"><use transform="matrix(0.010850694444444444,0,0,0.010850694444444444,0,0)" xlink:href="#Y"/><use transform="matrix(0.010850694444444444,0,0,0.010850694444444444,9.038628472222221,0)" xlink:href="#Y"/><use transform="matrix(0.010850694444444444,0,0,0.010850694444444444,18.077256944444443,0)" xlink:href="#Y"/><use transform="matrix(0.010850694444444444,0,0,0.010850694444444444,27.115885416666664,0)" xlink:href="#Y"/></g><path d="M657 26c-323 0-524-166-541-416h195c15 169 171 246 346 246 202 0 356-106 356-265 5-203-294-238-475-293-239-73-380-191-380-389 0-252 224-419 512-419 294 0 499 171 508 396H992c-17-145-151-228-328-228-193 0-321 102-321 242 0 156 175 211 284 241l149 41c160 44 422 134 422 412 0 244-197 432-541 432" id="ar"/><path d="M52 0l541-1490h220L1361 0h-200l-149-416H398L254 0H52zm404-582h497c-103-290-145-390-251-756-108 377-145 460-246 756" id="as"/><path d="M98-1322v-168h1126v168H757V0H567v-1322H98" id="at"/><path d="M130 0v-134l666-991c45-67 96-135 147-202-269 9-546 3-821 5v-168h1036v136L502-379c-49 72-103 145-157 216 268-9 546-3 821-5V0H130" id="au"/><path d="M180 0v-1490h908v168H370v486h669v168H370v500h727V0H180" id="av"/><g id="H"><use transform="matrix(0.010850694444444444,0,0,0.010850694444444444,0,0)" xlink:href="#ar"/><use transform="matrix(0.010850694444444444,0,0,0.010850694444444444,14.2578125,0)" xlink:href="#as"/><use transform="matrix(0.010850694444444444,0,0,0.010850694444444444,29.58984375,0)" xlink:href="#ae"/><use transform="matrix(0.010850694444444444,0,0,0.010850694444444444,46.33246527777778,0)" xlink:href="#R"/><use transform="matrix(0.010850694444444444,0,0,0.010850694444444444,52.30034722222222,0)" xlink:href="#at"/><use transform="matrix(0.010850694444444444,0,0,0.010850694444444444,66.64496527777777,0)" xlink:href="#R"/><use transform="matrix(0.010850694444444444,0,0,0.010850694444444444,72.61284722222221,0)" xlink:href="#au"/><use transform="matrix(0.010850694444444444,0,0,0.010850694444444444,86.58854166666666,0)" xlink:href="#av"/></g><g id="I"><use transform="matrix(0.010850694444444444,0,0,0.010850694444444444,0,0)" xlink:href="#L"/><use transform="matrix(0.010850694444444444,0,0,0.010850694444444444,13.606770833333332,0)" xlink:href="#M"/><use transform="matrix(0.010850694444444444,0,0,0.010850694444444444,26.746961805555554,0)" xlink:href="#N"/><use transform="matrix(0.010850694444444444,0,0,0.010850694444444444,39.44227430555556,0)" xlink:href="#O"/><use transform="matrix(0.010850694444444444,0,0,0.010850694444444444,51.13932291666667,0)" xlink:href="#P"/><use transform="matrix(0.010850694444444444,0,0,0.010850694444444444,64.09505208333334,0)" xlink:href="#Q"/></g><path d="M180 0v-1490h901v168H370v510h643v168H370V0H180" id="aw"/><path d="M784 20c-382 0-662-292-662-764 0-473 280-766 662-766s660 293 660 766c0 472-278 764-660 764zm0-176c266 0 475-207 475-588 0-383-209-590-475-590-268 0-477 208-477 590 0 380 209 588 477 588" id="ax"/><path d="M180 0v-1490h510c348 0 508 194 508 460 0 198-88 351-276 417L1256 0h-220L726-579c-117 2-238 0-356 1V0H180zm190-747h312c235 0 327-108 327-283 0-177-92-293-329-293H370v576" id="ay"/><g id="J"><use transform="matrix(0.010850694444444444,0,0,0.010850694444444444,0,0)" xlink:href="#aa"/><use transform="matrix(0.010850694444444444,0,0,0.010850694444444444,14.539930555555555,0)" xlink:href="#av"/><use transform="matrix(0.010850694444444444,0,0,0.010850694444444444,27.897135416666664,0)" xlink:href="#aw"/><use transform="matrix(0.010850694444444444,0,0,0.010850694444444444,41.015625,0)" xlink:href="#ax"/><use transform="matrix(0.010850694444444444,0,0,0.010850694444444444,58.0078125,0)" xlink:href="#ay"/><use transform="matrix(0.010850694444444444,0,0,0.010850694444444444,72.30902777777777,0)" xlink:href="#av"/></g><g id="K"><use transform="matrix(0.010850694444444444,0,0,0.010850694444444444,0,0)" xlink:href="#ay"/><use transform="matrix(0.010850694444444444,0,0,0.010850694444444444,14.301215277777777,0)" xlink:href="#av"/><use transform="matrix(0.010850694444444444,0,0,0.010850694444444444,27.65842013888889,0)" xlink:href="#ar"/><use transform="matrix(0.010850694444444444,0,0,0.010850694444444444,41.916232638888886,0)" xlink:href="#R"/><use transform="matrix(0.010850694444444444,0,0,0.010850694444444444,47.88411458333333,0)" xlink:href="#au"/><use transform="matrix(0.010850694444444444,0,0,0.010850694444444444,61.85980902777778,0)" xlink:href="#av"/></g></defs></g></svg>